<svg xmlns="http://www.w3.org/2000/svg" width="19.732" height="12.561" viewBox="0 0 19.732 12.561">
  <g id="Group_28" data-name="Group 28" transform="translate(-242.634 -956.22)">
    <path id="Path_21" data-name="Path 21" d="M99.887,23.307a3.357,3.357,0,0,0,1.385-.615,3.416,3.416,0,0,0,.868-.964,3.593,3.593,0,0,0,.545-1.955,3.243,3.243,0,0,0-.477-1.8,2.733,2.733,0,0,0-1.416-1.081,2.923,2.923,0,0,0,.935-.7,2.73,2.73,0,0,0,.568-1.8,3.118,3.118,0,0,0-.563-1.871,3.759,3.759,0,0,0-3.175-1.3H92.634V23.473h5.522a8.47,8.47,0,0,0,1.731-.166m-4.809-9.959h2.666a4.6,4.6,0,0,1,1.448.191,1.1,1.1,0,0,1,.659,1.131,1.157,1.157,0,0,1-.5,1.076,2.462,2.462,0,0,1-1.3.3H95.078Zm0,8V18.078h3.016a3.105,3.105,0,0,1,1.225.208A1.316,1.316,0,0,1,100.1,19.6a1.543,1.543,0,0,1-.806,1.53,2.89,2.89,0,0,1-1.24.216Z" transform="translate(150 945)" fill="#fff"/>
    <path id="Path_22" data-name="Path 22" d="M104.761,22.666a4.932,4.932,0,0,0,3.191,1.115,4.4,4.4,0,0,0,3.409-1.322,2.965,2.965,0,0,0,.879-1.638h-2.419a1.982,1.982,0,0,1-.488.623,2,2,0,0,1-1.316.417,2.394,2.394,0,0,1-1.305-.342,2.169,2.169,0,0,1-.948-1.912h6.6a11.512,11.512,0,0,0-.078-1.8,4.448,4.448,0,0,0-.722-1.873A3.68,3.68,0,0,0,110,14.6a5.155,5.155,0,0,0-2.131-.424,4.369,4.369,0,0,0-3.24,1.257,4.9,4.9,0,0,0-1.248,3.61,4.394,4.394,0,0,0,1.383,3.628m1.692-6.024a1.879,1.879,0,0,1,1.414-.517,2.082,2.082,0,0,1,1.406.488,1.974,1.974,0,0,1,.631,1.431h-4.082a2.461,2.461,0,0,1,.631-1.4" transform="translate(150 945)" fill="#fff"/>
    <rect id="Rectangle_6" data-name="Rectangle 6" width="5.325" height="1.237" transform="translate(255.05 956.924)" fill="#fff"/>
  </g>
</svg>
