<svg xmlns="http://www.w3.org/2000/svg" width="19.73" height="12.56" viewBox="0 0 19.73 12.56"><defs><style>.cls-1{fill:#262626;}</style></defs><g id="Layer_2" data-name="Layer 2"><g id="Layer_1-2" data-name="Layer 1"><path class="cls-1" d="M7.25,12.09a3.33,3.33,0,0,0,1.39-.62,3.6,3.6,0,0,0,1.41-2.92,3.21,3.21,0,0,0-.48-1.79A2.68,2.68,0,0,0,8.16,5.68,3,3,0,0,0,9.09,5a2.72,2.72,0,0,0,.57-1.8A3.19,3.19,0,0,0,9.1,1.3,3.77,3.77,0,0,0,5.92,0H0V12.25H5.52A8.55,8.55,0,0,0,7.25,12.09Zm-4.81-10H5.11a4.55,4.55,0,0,1,1.45.19,1.09,1.09,0,0,1,.66,1.13,1.17,1.17,0,0,1-.5,1.08,2.5,2.5,0,0,1-1.3.3h-3Zm0,8V6.86h3a2.93,2.93,0,0,1,1.23.21,1.3,1.3,0,0,1,.78,1.31,1.55,1.55,0,0,1-.81,1.53,3,3,0,0,1-1.24.22Z"/><path class="cls-1" d="M12.13,11.45a4.94,4.94,0,0,0,3.19,1.11,4.41,4.41,0,0,0,3.41-1.32,3,3,0,0,0,.88-1.64H17.19a1.87,1.87,0,0,1-.49.62,2,2,0,0,1-1.32.42,2.35,2.35,0,0,1-1.3-.34,2.17,2.17,0,0,1-.95-1.91h6.6a12.33,12.33,0,0,0-.08-1.8,4.41,4.41,0,0,0-.72-1.87,3.62,3.62,0,0,0-1.57-1.34A5,5,0,0,0,15.23,3,4.35,4.35,0,0,0,12,4.21a4.9,4.9,0,0,0-1.25,3.61A4.39,4.39,0,0,0,12.13,11.45Zm1.69-6a1.89,1.89,0,0,1,1.41-.51,2.11,2.11,0,0,1,1.41.48,2,2,0,0,1,.63,1.43H13.19A2.43,2.43,0,0,1,13.82,5.42Z"/><rect class="cls-1" x="12.42" y="0.7" width="5.33" height="1.24"/></g></g></svg>