<svg xmlns="http://www.w3.org/2000/svg" width="22.312" height="22.312" viewBox="0 0 22.312 22.312">
  <path id="Path_24" data-name="Path 24" d="M187.5,6.345A11.156,11.156,0,1,0,198.656,17.5,11.156,11.156,0,0,0,187.5,6.345m0,1.94a9.16,9.16,0,0,1,5.618,1.927,11.274,11.274,0,0,1-4.636,3.42,42.9,42.9,0,0,0-3.242-5.056,9.155,9.155,0,0,1,2.26-.291m-4.157,1a41.593,41.593,0,0,1,3.288,5,29.551,29.551,0,0,1-8.074,1.028,9.241,9.241,0,0,1,4.786-6.031M178.284,17.5c0-.079.011-.158.013-.237a31.135,31.135,0,0,0,9.249-1.23q.325.663.623,1.332a14.356,14.356,0,0,0-7.75,6.024,9.172,9.172,0,0,1-2.135-5.889m9.216,9.216a9.154,9.154,0,0,1-5.655-1.954,12.524,12.524,0,0,1,7.062-5.6,36.419,36.419,0,0,1,1.9,6.935,9.136,9.136,0,0,1-3.307.623m5.115-1.555a38.311,38.311,0,0,0-1.784-6.412,18.551,18.551,0,0,1,5.762.183,9.22,9.22,0,0,1-3.978,6.229m-2.528-8.248c-.226-.524-.462-1.045-.713-1.562a13.179,13.179,0,0,0,5.158-3.794,9.173,9.173,0,0,1,2.158,5.424,19.928,19.928,0,0,0-6.6-.068" transform="translate(-176.344 -6.345)" fill="#fff"/>
</svg>
