<svg xmlns="http://www.w3.org/2000/svg" width="22.31" height="22.31" viewBox="0 0 22.31 22.31"><defs><style>.cls-1{fill:#262626;}</style></defs><g id="Layer_2" data-name="Layer 2"><g id="Layer_1-2" data-name="Layer 1"><path class="cls-1" d="M11.16,0A11.16,11.16,0,1,0,22.31,11.16,11.15,11.15,0,0,0,11.16,0Zm0,1.94a9.09,9.09,0,0,1,5.61,1.93,11.35,11.35,0,0,1-4.63,3.42A45,45,0,0,0,8.9,2.23,9.33,9.33,0,0,1,11.16,1.94ZM7,2.94a41.49,41.49,0,0,1,3.29,5A29.76,29.76,0,0,1,2.21,9,9.28,9.28,0,0,1,7,2.94ZM1.94,11.16c0-.08,0-.16,0-.24A31.4,31.4,0,0,0,11.2,9.69c.22.44.43.88.62,1.33a14.34,14.34,0,0,0-7.75,6A9.15,9.15,0,0,1,1.94,11.16Zm9.22,9.21A9.15,9.15,0,0,1,5.5,18.42a12.58,12.58,0,0,1,7.06-5.61,35.67,35.67,0,0,1,1.9,6.94A9.09,9.09,0,0,1,11.16,20.37Zm5.11-1.55a38.67,38.67,0,0,0-1.78-6.42,18.59,18.59,0,0,1,5.76.19A9.27,9.27,0,0,1,16.27,18.82Zm-2.53-8.25C13.52,10,13.28,9.52,13,9a13.23,13.23,0,0,0,5.16-3.8,9.24,9.24,0,0,1,2.16,5.43A19.63,19.63,0,0,0,13.74,10.57Z"/></g></g></svg>