<svg xmlns="http://www.w3.org/2000/svg" viewBox="0 0 30 22.5"><defs><style>.cls-1{fill:#f7931e;}</style></defs><g id="Layer_2" data-name="Layer 2"><g id="Layer_1-2" data-name="Layer 1"><path class="cls-1" d="M25.42,0H4.58A4.59,4.59,0,0,0,0,4.58V17.92A4.59,4.59,0,0,0,4.58,22.5H25.42A4.59,4.59,0,0,0,30,17.92V4.58A4.59,4.59,0,0,0,25.42,0ZM25.2,2.5,17.35,8.81a3.73,3.73,0,0,1-4.7,0L4.8,2.5Zm2.3,15.42A2.08,2.08,0,0,1,25.42,20H4.58A2.08,2.08,0,0,1,2.5,17.92V4.58A1.86,1.86,0,0,1,2.63,4l8.46,6.8a6.24,6.24,0,0,0,7.83,0L27.37,4a1.86,1.86,0,0,1,.13.62Z"/></g></g></svg>