<svg xmlns="http://www.w3.org/2000/svg" width="19.19" height="19.19" viewBox="0 0 19.19 19.19"><defs><style>.cls-1{fill:#262626;}</style></defs><g id="Layer_2" data-name="Layer 2"><g id="Layer_1-2" data-name="Layer 1"><path class="cls-1" d="M9.6,1.73c2.56,0,2.86,0,3.87.05a5.13,5.13,0,0,1,1.78.34,3,3,0,0,1,1.11.71,3.18,3.18,0,0,1,.72,1.11,5.46,5.46,0,0,1,.33,1.78c0,1,.05,1.31.05,3.88s0,2.86-.05,3.87a5.46,5.46,0,0,1-.33,1.78,3.17,3.17,0,0,1-1.83,1.83,5.46,5.46,0,0,1-1.78.33c-1,0-1.31.05-3.87.05s-2.87,0-3.88-.05a5.46,5.46,0,0,1-1.78-.33,3.18,3.18,0,0,1-1.11-.72,3,3,0,0,1-.71-1.11,5.13,5.13,0,0,1-.34-1.78c0-1-.05-1.31-.05-3.87s0-2.87.05-3.88a5.13,5.13,0,0,1,.34-1.78A3.07,3.07,0,0,1,3.94,2.12a5.13,5.13,0,0,1,1.78-.34c1,0,1.31-.05,3.88-.05M9.6,0C7,0,6.66,0,5.64.06A7.09,7.09,0,0,0,3.31.5,4.94,4.94,0,0,0,.5,3.31,7.09,7.09,0,0,0,.06,5.64C0,6.66,0,7,0,9.6s0,2.93.06,4A7.09,7.09,0,0,0,.5,15.88a4.94,4.94,0,0,0,2.81,2.81,7.09,7.09,0,0,0,2.33.44c1,.05,1.35.06,4,.06s2.93,0,4-.06a7.09,7.09,0,0,0,2.33-.44,4.94,4.94,0,0,0,2.81-2.81,7.09,7.09,0,0,0,.44-2.33c.05-1,.06-1.35.06-4s0-2.94-.06-4a7.09,7.09,0,0,0-.44-2.33A4.94,4.94,0,0,0,15.88.5,7.09,7.09,0,0,0,13.55.06c-1,0-1.35-.06-4-.06"/><path class="cls-1" d="M9.6,4.67A4.93,4.93,0,1,0,14.52,9.6,4.92,4.92,0,0,0,9.6,4.67m0,8.12A3.2,3.2,0,1,1,12.79,9.6,3.19,3.19,0,0,1,9.6,12.79"/><path class="cls-1" d="M15.87,4.47a1.15,1.15,0,1,1-1.15-1.15,1.15,1.15,0,0,1,1.15,1.15"/></g></g></svg>