<svg xmlns="http://www.w3.org/2000/svg" width="19.19" height="19.191" viewBox="0 0 19.19 19.191">
  <g id="Group_27" data-name="Group 27" transform="translate(-157.905 -952.905)">
    <path id="Path_17" data-name="Path 17" d="M17.5,9.634c2.562,0,2.866.01,3.877.056a5.3,5.3,0,0,1,1.782.33,3.181,3.181,0,0,1,1.821,1.821,5.3,5.3,0,0,1,.331,1.782c.046,1.012.056,1.315.056,3.877s-.01,2.866-.056,3.878a5.3,5.3,0,0,1-.331,1.781,3.174,3.174,0,0,1-1.821,1.821,5.3,5.3,0,0,1-1.782.331c-1.011.046-1.315.056-3.877.056s-2.865-.01-3.877-.056a5.3,5.3,0,0,1-1.782-.331,3.174,3.174,0,0,1-1.821-1.821,5.321,5.321,0,0,1-.331-1.781c-.045-1.012-.055-1.315-.055-3.878s.01-2.865.055-3.877a5.328,5.328,0,0,1,.331-1.782,3.181,3.181,0,0,1,1.821-1.821,5.3,5.3,0,0,1,1.782-.33c1.012-.046,1.315-.056,3.877-.056m0-1.729c-2.606,0-2.933.011-3.956.058a7.031,7.031,0,0,0-2.329.446,4.9,4.9,0,0,0-2.806,2.806,7.011,7.011,0,0,0-.446,2.329c-.047,1.024-.058,1.35-.058,3.956s.011,2.933.058,3.957a7.011,7.011,0,0,0,.446,2.329,4.9,4.9,0,0,0,2.806,2.806,7.057,7.057,0,0,0,2.329.446c1.023.047,1.35.058,3.956.058s2.933-.011,3.956-.058a7.057,7.057,0,0,0,2.329-.446,4.909,4.909,0,0,0,2.807-2.806,7.062,7.062,0,0,0,.446-2.329c.046-1.024.057-1.351.057-3.957s-.011-2.932-.057-3.956a7.062,7.062,0,0,0-.446-2.329,4.909,4.909,0,0,0-2.807-2.806,7.031,7.031,0,0,0-2.329-.446c-1.023-.047-1.35-.058-3.956-.058" transform="translate(150 945)" fill="#fff"/>
    <path id="Path_18" data-name="Path 18" d="M17.5,12.573A4.927,4.927,0,1,0,22.427,17.5,4.927,4.927,0,0,0,17.5,12.573m0,8.126a3.2,3.2,0,1,1,3.2-3.2,3.2,3.2,0,0,1-3.2,3.2" transform="translate(150 945)" fill="#fff"/>
    <path id="Path_19" data-name="Path 19" d="M23.774,12.378a1.152,1.152,0,1,1-1.152-1.151,1.153,1.153,0,0,1,1.152,1.151" transform="translate(150 945)" fill="#fff"/>
  </g>
</svg>
