<svg xmlns="http://www.w3.org/2000/svg" viewBox="0 0 26.22 30"><defs><style>.cls-1{fill:#f7931e;}</style></defs><g id="Layer_2" data-name="Layer 2"><g id="Layer_1-2" data-name="Layer 1"><path class="cls-1" d="M13.11,30a3.72,3.72,0,0,1-2.67-1.11L3.86,22.32A12.88,12.88,0,0,1,1,8.07,12.87,12.87,0,0,1,13.11,0,12.87,12.87,0,0,1,25.19,8.07a12.88,12.88,0,0,1-2.84,14.25l-6.57,6.57A3.72,3.72,0,0,1,13.11,30Zm0-27.5A10.41,10.41,0,0,0,3.34,9,10.4,10.4,0,0,0,5.63,20.55l6.57,6.57a1.28,1.28,0,0,0,1.81,0l6.58-6.57A10.4,10.4,0,0,0,22.88,9,10.41,10.41,0,0,0,13.11,2.5Z"/><path class="cls-1" d="M13.11,17.55a4.46,4.46,0,1,1,4.45-4.45A4.46,4.46,0,0,1,13.11,17.55Zm0-6.41a2,2,0,1,0,2,2A2,2,0,0,0,13.11,11.14Z"/></g></g></svg>