<svg xmlns="http://www.w3.org/2000/svg" viewBox="0 0 150 77.67"><defs><style>.cls-1{fill:#fff;}.cls-2{fill:#f6931d;}</style></defs><g id="Layer_2" data-name="Layer 2"><g id="Layer_1-2" data-name="Layer 1"><path class="cls-1" d="M4,73.8A13.68,13.68,0,0,1,4,54.51a13.73,13.73,0,0,1,10-3.86,13.86,13.86,0,0,1,9.32,3.29,12.77,12.77,0,0,1,4.44,8.39H20a6.13,6.13,0,0,0-6.05-4.54,6.05,6.05,0,0,0-4.52,1.8,6.68,6.68,0,0,0,0,9.12,6.07,6.07,0,0,0,4.52,1.83,6.09,6.09,0,0,0,3.88-1.29A6,6,0,0,0,20,66h7.71a12.81,12.81,0,0,1-4.44,8.4,13.92,13.92,0,0,1-9.32,3.3A13.66,13.66,0,0,1,4,73.8Z"/><path class="cls-1" d="M50.64,51.27H58V77.06H50.64V74.21a10.21,10.21,0,0,1-7.81,3.46A11.51,11.51,0,0,1,34,73.8a13.66,13.66,0,0,1-3.59-9.66A13.62,13.62,0,0,1,34,54.51a11.57,11.57,0,0,1,8.86-3.86,10.16,10.16,0,0,1,7.81,3.43ZM48.86,68.71a6.27,6.27,0,0,0,1.78-4.57,6.15,6.15,0,0,0-6.32-6.35,6,6,0,0,0-4.47,1.8,6.65,6.65,0,0,0,0,9.12,6,6,0,0,0,4.47,1.83A6.17,6.17,0,0,0,48.86,68.71Z"/><path class="cls-1" d="M82.7,40.62h7.39V77.06H82.7V74.21a10.2,10.2,0,0,1-7.8,3.46A11.53,11.53,0,0,1,66,73.8a13.66,13.66,0,0,1-3.58-9.66A13.62,13.62,0,0,1,66,54.51a11.59,11.59,0,0,1,8.87-3.86,10.13,10.13,0,0,1,7.8,3.43ZM80.93,68.71a6.31,6.31,0,0,0,1.77-4.57,6.15,6.15,0,0,0-6.32-6.35,6,6,0,0,0-4.47,1.8,6.68,6.68,0,0,0,0,9.12,6,6,0,0,0,4.47,1.83A6.17,6.17,0,0,0,80.93,68.71Z"/><path class="cls-1" d="M122.06,66.53H102.32a6.18,6.18,0,0,0,6.17,4.7,6.29,6.29,0,0,0,5.41-2.57h7.83a12.9,12.9,0,0,1-5,6.52,14.44,14.44,0,0,1-8.37,2.49,13.66,13.66,0,0,1-10-3.87,13.68,13.68,0,0,1,0-19.29,14.74,14.74,0,0,1,19.89,0,13.09,13.09,0,0,1,4,9.75A11,11,0,0,1,122.06,66.53Zm-19.69-4.91H114.3a6,6,0,0,0-6-4.6A6.12,6.12,0,0,0,102.37,61.62Z"/><path class="cls-1" d="M133.86,54.7a8.91,8.91,0,0,1,7.19-3.85v7.58c-4.57,0-7.19,2.54-7.19,6.59v12h-7.38V51.27h7.38Z"/><path class="cls-1" d="M33.71,11.53a8.65,8.65,0,0,1,2.34,6.32v14.8H32.19V18.93a6,6,0,0,0-1.62-4.39,5.85,5.85,0,0,0-4.31-1.63,6.32,6.32,0,0,0-4.57,1.69A5.85,5.85,0,0,0,20,19V32.65H16.1V18.93a6,6,0,0,0-1.63-4.39,5.85,5.85,0,0,0-4.33-1.63A6.21,6.21,0,0,0,5.6,14.6,5.86,5.86,0,0,0,3.86,19V32.65H0V9.73H3.86V13a8.44,8.44,0,0,1,7.51-3.82,8.11,8.11,0,0,1,7.82,4.76c1.69-3.18,4.44-4.76,8.28-4.76A8.53,8.53,0,0,1,33.71,11.53Z"/><path class="cls-1" d="M58.8,9.73h3.87V32.65H58.8v-3.6a8.86,8.86,0,0,1-7.9,4.15,8.78,8.78,0,0,1-6.48-2.48,8.88,8.88,0,0,1-2.48-6.57V9.73H45.8V23a6.39,6.39,0,0,0,1.72,4.68,6.17,6.17,0,0,0,4.59,1.76A6.67,6.67,0,0,0,57,27.67,6.3,6.3,0,0,0,58.8,23Z"/><path class="cls-1" d="M90.2,12.6a11.94,11.94,0,0,1,3.3,8.57,11.93,11.93,0,0,1-3.3,8.58A10.88,10.88,0,0,1,82,33.2a10.23,10.23,0,0,1-8.89-4.92v4.37H69.23V.26H73.1V14.08A10.28,10.28,0,0,1,82,9.18,11,11,0,0,1,90.2,12.6Zm-3,14.5a8,8,0,0,0,2.33-5.91,8.1,8.1,0,0,0-2.33-5.93,8,8,0,0,0-5.9-2.35,7.89,7.89,0,0,0-5.84,2.35,8.1,8.1,0,0,0-2.33,5.93,8,8,0,0,0,2.33,5.91,7.83,7.83,0,0,0,5.84,2.37A8,8,0,0,0,87.17,27.1Z"/><path class="cls-1" d="M98,2.57a2.58,2.58,0,0,1,5.16,0,2.58,2.58,0,0,1-5.16,0Zm.68,30.08V9.73h3.87V32.65Z"/><path class="cls-1" d="M108.34,2.57a2.58,2.58,0,0,1,5.16,0,2.58,2.58,0,0,1-5.16,0ZM109,32.65V9.73h3.87V32.65Z"/><path class="cls-1" d="M138.27,11.7a9.13,9.13,0,0,1,2.57,6.79V32.65H137V19.7a6.75,6.75,0,0,0-1.82-4.92,6.46,6.46,0,0,0-4.87-1.87,7,7,0,0,0-5.08,1.89,6.63,6.63,0,0,0-1.93,5V32.65h-3.86V9.73h3.86v3.66a10.24,10.24,0,0,1,15-1.69Z"/><circle class="cls-2" cx="145.42" cy="4.6" r="4.58"/></g></g></svg>