<svg xmlns="http://www.w3.org/2000/svg" viewBox="0 0 19.42 30"><defs><style>.cls-1{fill:#f7931e;}</style></defs><g id="Layer_2" data-name="Layer 2"><g id="Layer_1-2" data-name="Layer 1"><path class="cls-1" d="M14.84,30H4.58A4.59,4.59,0,0,1,0,25.42V4.58A4.59,4.59,0,0,1,4.58,0H14.84a4.59,4.59,0,0,1,4.58,4.58V25.42A4.59,4.59,0,0,1,14.84,30ZM4.58,2.5A2.08,2.08,0,0,0,2.5,4.58V25.42A2.08,2.08,0,0,0,4.58,27.5H14.84a2.08,2.08,0,0,0,2.08-2.08V4.58A2.08,2.08,0,0,0,14.84,2.5Z"/><path class="cls-1" d="M11.83,7.45H7.6A1.25,1.25,0,0,1,7.6,5h4.23a1.25,1.25,0,0,1,0,2.5Z"/><circle class="cls-1" cx="9.71" cy="23.75" r="1.25"/></g></g></svg>